    <svg
      fill="none"
      height="38"
      viewBox="0 0 54 38"
      width="54"
      xmlns="http://www.w3.org/2000/svg"
    >
      <title>Logo Icon</title>
      <path
        d="M12.4095 0.193536C12.6225 0.183866 12.8355 0.179401 13.0484 0.180145C13.2614 0.180889 13.4743 0.186736 13.6873 0.197681C13.8992 0.208732 14.111 0.224936 14.3229 0.246295C14.5348 0.267547 14.7461 0.293955 14.9569 0.325515C15.1677 0.357181 15.3774 0.393843 15.5861 0.435498C15.7947 0.477259 16.0023 0.524065 16.2088 0.575921C16.4153 0.627671 16.6202 0.684468 16.8235 0.746313C17.0268 0.808052 17.2284 0.874678 17.4285 0.946193C17.6296 1.01781 17.828 1.09422 18.0238 1.17541C18.2206 1.25659 18.4153 1.34245 18.6078 1.43299C18.7992 1.52363 18.9891 1.61884 19.1773 1.71862C19.3644 1.81851 19.5489 1.92285 19.7306 2.03167C19.9135 2.14037 20.0931 2.25349 20.2695 2.37102C20.4459 2.48854 20.6195 2.61027 20.7906 2.73619C20.9616 2.86211 21.1288 2.99207 21.2923 3.12607C21.4568 3.26017 21.6176 3.3981 21.7747 3.53986C21.9317 3.68172 22.0855 3.8273 22.2361 3.97659C22.3856 4.12589 22.5318 4.27876 22.6749 4.43517C22.8168 4.59149 22.955 4.7512 23.0895 4.91432C23.2239 5.07743 23.3541 5.24373 23.4799 5.41322C23.6068 5.5826 23.7289 5.75496 23.8461 5.93029C23.9634 6.10563 24.0763 6.28372 24.1849 6.46458C24.2946 6.64544 24.3989 6.8288 24.4979 7.01465C24.5979 7.20051 24.6931 7.3887 24.7834 7.57923C24.8738 7.76976 24.9593 7.96236 25.04 8.15703C25.1206 8.3516 25.1964 8.54808 25.2674 8.74647C25.3384 8.94476 25.404 9.14464 25.4643 9.34611C25.5256 9.54769 25.5815 9.7506 25.632 9.95484C25.6836 10.1591 25.7299 10.3644 25.7708 10.5709C25.8106 10.7774 25.8461 10.9847 25.8772 11.1929C25.9074 11.401 25.9326 11.6098 25.9531 11.8193C25.9724 12.0287 25.9869 12.2385 25.9966 12.4486C26.0063 12.6586 26.0106 12.8689 26.0095 13.0793C26.0084 13.2896 26.0025 13.4998 25.9918 13.7098C25.9799 13.9198 25.9633 14.1294 25.9418 14.3387C25.9203 14.5479 25.8934 14.7565 25.8611 14.9644C25.8288 15.1724 25.7912 15.3794 25.7482 15.5856C25.7062 15.7916 25.6589 15.9966 25.6062 16.2004C25.5535 16.4042 25.496 16.6066 25.4336 16.8077C25.3701 17.0086 25.3024 17.208 25.2303 17.4057C25.1572 17.6035 25.0797 17.7993 24.998 17.9932C24.9152 18.1872 24.8281 18.379 24.7367 18.5688C24.6442 18.7585 24.5474 18.9459 24.4463 19.131C24.3452 19.316 24.2392 19.4985 24.1284 19.6784C24.0187 19.8583 23.9042 20.0354 23.7848 20.2098C23.6654 20.3842 23.5417 20.5555 23.4138 20.7238C23.2868 20.8921 23.1551 21.0573 23.0185 21.2194C22.883 21.3813 22.7432 21.5399 22.5991 21.695C22.456 21.8503 22.3087 22.0019 22.157 22.1499C22.0054 22.298 21.8505 22.4422 21.6924 22.5827C21.5343 22.7232 21.3724 22.8598 21.2068 22.9925C21.0412 23.1251 20.8728 23.2537 20.7018 23.3782C20.5297 23.5027 20.355 23.6229 20.1775 23.7389C20.0001 23.8549 19.8199 23.9665 19.6371 24.0738C19.4531 24.181 19.2671 24.2838 19.0789 24.3821C18.8906 24.4803 18.7003 24.5739 18.5078 24.6629C18.3142 24.7519 18.119 24.8361 17.9221 24.9157C17.7253 24.9952 17.5263 25.0699 17.3252 25.1398C17.1241 25.2097 16.9214 25.2746 16.717 25.3346C16.5137 25.3947 16.3083 25.4497 16.1007 25.4998C15.8942 25.5499 15.6867 25.595 15.478 25.6349C15.2683 25.6749 15.058 25.7098 14.8472 25.7396C14.6364 25.7694 14.4251 25.794 14.2132 25.8136C14.0013 25.8332 13.7889 25.8476 13.576 25.8568C13.363 25.866 13.1506 25.8701 12.9387 25.8691C12.7258 25.868 12.5128 25.8618 12.2998 25.8504C12.088 25.8389 11.8761 25.8224 11.6642 25.8009C11.4523 25.7792 11.2415 25.7524 11.0318 25.7205C10.8221 25.6886 10.6129 25.6517 10.4042 25.6097C10.1956 25.5677 9.988 25.5206 9.7815 25.4685C9.57608 25.4164 9.37174 25.3594 9.16847 25.2975C8.96519 25.2355 8.76353 25.1687 8.56349 25.097C8.36344 25.0251 8.16553 24.9486 7.96979 24.8673C7.77297 24.7859 7.57884 24.6999 7.3874 24.6092C7.19595 24.5185 7.00666 24.4231 6.81952 24.3231C6.63238 24.2232 6.44793 24.1188 6.26617 24.0099C6.08333 23.9011 5.90424 23.7879 5.72893 23.6702C5.55255 23.5527 5.37885 23.431 5.20785 23.3051C5.03791 23.1791 4.87121 23.0491 4.70773 22.915C4.54318 22.781 4.38293 22.6431 4.22698 22.5012C4.06995 22.3595 3.91615 22.214 3.76558 22.0647C3.61608 21.9155 3.47034 21.7627 3.32837 21.6064C3.1864 21.4501 3.0482 21.2904 2.91376 21.1274C2.77932 20.9644 2.64918 20.7983 2.52334 20.629C2.3975 20.4596 2.27597 20.2873 2.15874 20.1121C2.0415 19.937 1.92858 19.759 1.81995 19.5783C1.71132 19.3976 1.60753 19.2144 1.50858 19.0287C1.40855 18.843 1.31393 18.6551 1.22466 18.4647C1.13431 18.2744 1.0488 18.082 0.968131 17.8876C0.887467 17.6931 0.811657 17.4968 0.740673 17.2988C0.669688 17.1006 0.604066 16.9009 0.543837 16.6996C0.482532 16.4982 0.426618 16.2956 0.376069 16.0917C0.325519 15.8876 0.279794 15.6825 0.238924 15.4762C0.198054 15.27 0.162576 15.0629 0.132461 14.8551C0.102347 14.6471 0.0770569 14.4385 0.056622 14.2293C0.0372626 14.0202 0.0227596 13.8107 0.0130799 13.6008C0.00340015 13.3909 -0.000914547 13.181 0.000160976 12.9709C0.0012365 12.7608 0.00714951 12.5509 0.0179047 12.3411C0.0297355 12.1313 0.0464155 11.9219 0.067926 11.713C0.0894364 11.5039 0.116325 11.2956 0.14859 11.0878C0.180856 10.8802 0.217952 10.6734 0.259897 10.4674C0.302918 10.2616 0.350242 10.0569 0.401867 9.8533C0.454568 9.6497 0.512119 9.44754 0.5745 9.24681C0.637955 9.04597 0.705715 8.84678 0.777775 8.64924C0.849835 8.45169 0.927263 8.25607 1.01008 8.06235C1.09182 7.86853 1.1784 7.67683 1.26981 7.48726C1.36231 7.29779 1.45911 7.11061 1.56021 6.92571C1.66131 6.74081 1.76671 6.55846 1.87641 6.37867C1.98611 6.19887 2.10066 6.02184 2.22004 5.84757C2.33835 5.6734 2.4615 5.50216 2.58949 5.33384C2.7164 5.16562 2.84761 5.00055 2.98312 4.8386C3.11864 4.67676 3.25793 4.51827 3.40098 4.36313C3.5451 4.20798 3.69244 4.0564 3.84301 3.90838C3.99466 3.76035 4.14954 3.6161 4.30764 3.47562C4.46574 3.33514 4.62707 3.19854 4.79163 3.06582C4.95618 2.9331 5.1245 2.80447 5.29659 2.67993C5.46759 2.55539 5.64183 2.4351 5.81929 2.31906C5.99675 2.20302 6.1769 2.09128 6.35973 1.98385C6.54257 1.87653 6.72755 1.77366 6.91469 1.67526C7.10291 1.57686 7.29328 1.48309 7.4858 1.39393C7.67832 1.30478 7.87299 1.22035 8.06981 1.14065C8.26663 1.06096 8.4656 0.986041 8.66672 0.915908C8.86677 0.845881 9.06897 0.78069 9.27331 0.720333C9.47659 0.660082 9.68149 0.604775 9.88799 0.554406C10.0945 0.504037 10.3021 0.458712 10.5107 0.418438C10.7194 0.378165 10.9291 0.342994 11.1399 0.312921C11.3507 0.282743 11.562 0.257717 11.7739 0.237845C11.9847 0.217868 12.1966 0.2031 12.4095 0.193536Z"
        fill="currentColor"
      />
      <path
        d="M12.8301 7.15057C12.9312 7.14399 13.0318 7.13979 13.1318 7.13798C13.2329 7.13628 13.334 7.13702 13.4351 7.14021C13.5362 7.1434 13.6367 7.14898 13.7368 7.15695C13.8379 7.16503 13.9384 7.17549 14.0384 7.18835C14.1385 7.20131 14.238 7.21667 14.3369 7.23441C14.4358 7.25216 14.5348 7.2723 14.6338 7.29482C14.7316 7.31735 14.829 7.34222 14.9258 7.36942C15.0236 7.39673 15.1204 7.42633 15.2162 7.45821C15.3108 7.49019 15.4054 7.52446 15.5001 7.56102C15.5937 7.59746 15.6862 7.63625 15.7776 7.67737C15.8701 7.71839 15.9609 7.76159 16.0502 7.80696C16.1406 7.85244 16.2293 7.90005 16.3164 7.94978C16.4035 7.99951 16.4896 8.05131 16.5745 8.10519C16.6595 8.15917 16.7434 8.21512 16.8262 8.27303C16.9079 8.33105 16.9881 8.39098 17.0666 8.45283C17.1462 8.51467 17.2241 8.57843 17.3005 8.6441C17.3758 8.70967 17.45 8.77709 17.5231 8.84637C17.5952 8.91555 17.6657 8.98648 17.7345 9.05916C17.8044 9.13184 17.8716 9.20612 17.9361 9.28199C18.0018 9.35797 18.0652 9.43544 18.1265 9.51439C18.1878 9.59345 18.2475 9.67389 18.3056 9.75572C18.3626 9.83764 18.418 9.9209 18.4717 10.0055C18.5255 10.09 18.5766 10.1758 18.625 10.2629C18.6745 10.3499 18.7218 10.4381 18.767 10.5273C18.8111 10.6167 18.8536 10.7071 18.8944 10.7985C18.9342 10.8899 18.9719 10.9822 19.0074 11.0755C19.0429 11.1687 19.0762 11.2627 19.1074 11.3575C19.1386 11.4524 19.1671 11.5479 19.1929 11.6442C19.2198 11.7404 19.2434 11.8372 19.2639 11.9346C19.2854 12.032 19.3047 12.1298 19.322 12.2281C19.3381 12.3264 19.3521 12.425 19.3639 12.5241C19.3757 12.623 19.3849 12.7222 19.3913 12.8217C19.3978 12.9211 19.4021 13.0206 19.4042 13.1202C19.4064 13.2199 19.4058 13.3195 19.4026 13.4191C19.3994 13.5186 19.3935 13.6181 19.3849 13.7175C19.3763 13.8167 19.3655 13.9157 19.3526 14.0146C19.3397 14.1134 19.3246 14.2118 19.3074 14.3099C19.2892 14.408 19.2687 14.5056 19.2461 14.6026C19.2225 14.6996 19.1972 14.796 19.1703 14.8919C19.1424 14.9877 19.1122 15.0829 19.08 15.1774C19.0477 15.2717 19.0133 15.3652 18.9767 15.4579C18.9391 15.5507 18.8998 15.6424 18.8589 15.7332C18.817 15.824 18.7729 15.9137 18.7267 16.0024C18.6815 16.0911 18.6336 16.1787 18.5831 16.2651C18.5325 16.3513 18.4798 16.4364 18.425 16.5202C18.3712 16.6041 18.3147 16.6865 18.2556 16.7676C18.1964 16.8486 18.1357 16.9282 18.0733 17.0064C18.0109 17.0845 17.9464 17.1611 17.8797 17.2361C17.813 17.311 17.7447 17.3843 17.6748 17.456C17.6049 17.5278 17.5334 17.5977 17.4602 17.6658C17.386 17.734 17.3107 17.8004 17.2344 17.8651C17.1569 17.9296 17.0784 17.9922 16.9988 18.053C16.9192 18.1138 16.838 18.1726 16.7552 18.2294C16.6724 18.2862 16.588 18.3409 16.5019 18.3936C16.417 18.4464 16.3304 18.4971 16.2422 18.5455C16.154 18.5941 16.0647 18.6404 15.9744 18.6845C15.884 18.7287 15.7921 18.7707 15.6985 18.8104C15.606 18.8502 15.513 18.8877 15.4194 18.9229C15.3248 18.9581 15.2296 18.991 15.1339 19.0216C15.0371 19.0522 14.9403 19.0805 14.8435 19.1064C14.7456 19.1323 14.6477 19.1559 14.5499 19.177C14.4509 19.1983 14.3514 19.2171 14.2514 19.2334C14.1525 19.2498 14.053 19.2637 13.9529 19.2752C13.8529 19.2867 13.7524 19.2958 13.6513 19.3025C13.5502 19.3092 13.4496 19.3134 13.3496 19.3151C13.2485 19.3169 13.1474 19.3162 13.0463 19.313C12.9452 19.3099 12.8446 19.3043 12.7446 19.2963C12.6435 19.2883 12.5429 19.2778 12.4429 19.2649C12.3429 19.252 12.2434 19.2367 12.1445 19.2189C12.0444 19.2013 11.9455 19.1812 11.8476 19.1587C11.7497 19.1362 11.6519 19.1112 11.554 19.0839C11.4572 19.0567 11.3609 19.0272 11.2652 18.9953C11.1695 18.9633 11.0749 18.9291 10.9813 18.8927C10.8877 18.8561 10.7947 18.8173 10.7022 18.7763C10.6108 18.7353 10.5199 18.692 10.4295 18.6466C10.3403 18.6012 10.2515 18.5536 10.1633 18.5039C10.0762 18.4542 9.99018 18.4023 9.90522 18.3483C9.82025 18.2945 9.73689 18.2386 9.65515 18.1807C9.57341 18.1226 9.49274 18.0627 9.41316 18.0009C9.33357 17.939 9.25614 17.8753 9.18085 17.8096C9.10449 17.7439 9.03028 17.6765 8.95822 17.6073C8.88508 17.538 8.81411 17.4671 8.74527 17.3945C8.67644 17.3218 8.60922 17.2475 8.54361 17.1715C8.47801 17.0957 8.41454 17.0182 8.35324 16.9391C8.29193 16.8602 8.23224 16.7797 8.17416 16.6978C8.11716 16.6159 8.06177 16.5326 8.00799 16.448C7.95529 16.3636 7.90421 16.2778 7.85474 16.1906C7.80526 16.1036 7.75848 16.0154 7.71438 15.926C7.66921 15.8367 7.62672 15.7463 7.58693 15.6549C7.54606 15.5635 7.50788 15.4712 7.47239 15.3779C7.4369 15.2847 7.40356 15.1906 7.37237 15.0957C7.34118 15.001 7.31267 14.9054 7.28686 14.8092C7.25997 14.7129 7.2363 14.6161 7.21586 14.5187C7.19435 14.4213 7.175 14.3234 7.15779 14.2251C7.14166 14.1267 7.12767 14.0281 7.11584 13.9291C7.10401 13.8301 7.09488 13.7308 7.08843 13.6314C7.08197 13.5319 7.07766 13.4324 7.07551 13.3328C7.07336 13.2332 7.0739 13.1335 7.07712 13.0338C7.08035 12.9343 7.08626 12.8348 7.09487 12.7354C7.10347 12.6362 7.11424 12.5371 7.12714 12.4383C7.14005 12.3395 7.15565 12.241 7.17394 12.143C7.19114 12.0449 7.21104 11.9473 7.23363 11.8502C7.25729 11.7531 7.28256 11.6567 7.30945 11.5609C7.33741 11.465 7.36751 11.3698 7.39978 11.2754C7.43205 11.181 7.46647 11.0875 7.50303 10.9947C7.54068 10.902 7.57993 10.8103 7.6208 10.7194C7.66274 10.6287 7.70685 10.5389 7.7531 10.4502C7.79935 10.3615 7.84721 10.2739 7.89668 10.1875C7.94723 10.1012 7.99993 10.0162 8.05478 9.93233C8.10963 9.84848 8.16609 9.76602 8.22417 9.68495C8.28332 9.60387 8.34409 9.52427 8.40647 9.44617C8.46885 9.36807 8.53339 9.2915 8.60007 9.21648C8.66676 9.14146 8.73506 9.06814 8.80496 8.99652C8.87487 8.92479 8.94693 8.85482 9.02114 8.7866C9.09427 8.71838 9.16956 8.65202 9.247 8.58751C9.32336 8.52291 9.40133 8.46026 9.48092 8.39959C9.56158 8.3388 9.64333 8.27999 9.72614 8.22314C9.80896 8.16639 9.89338 8.11167 9.97942 8.05896C10.0644 8.00626 10.151 7.95562 10.2392 7.90706C10.3274 7.8586 10.4166 7.81228 10.507 7.76807C10.5973 7.72386 10.6887 7.68189 10.7812 7.64215C10.8737 7.60241 10.9673 7.56494 11.0619 7.52977C11.1566 7.4946 11.2518 7.46171 11.3475 7.43111C11.4432 7.40051 11.54 7.37224 11.6379 7.34631C11.7358 7.32039 11.8336 7.29684 11.9315 7.2757C12.0305 7.25455 12.1294 7.23585 12.2283 7.21959C12.3284 7.20323 12.4284 7.18931 12.5284 7.17783C12.6284 7.16625 12.729 7.15716 12.8301 7.15057Z"
        fill="var(--background)"
      />
      <path
        d="M39.5467 0.194614C39.7596 0.185263 39.9721 0.181118 40.1839 0.182181C40.3969 0.183137 40.6098 0.189251 40.8228 0.200515C41.0347 0.211885 41.2465 0.228355 41.4584 0.249926C41.6703 0.271498 41.8816 0.298167 42.0924 0.32994C42.3022 0.361712 42.5114 0.398585 42.72 0.440559C42.9287 0.482533 43.1362 0.529556 43.3427 0.581625C43.5482 0.633587 43.7525 0.690543 43.9558 0.752494C44.1591 0.814445 44.3607 0.881289 44.5608 0.953016C44.7608 1.02474 44.9592 1.10125 45.1561 1.18254C45.3518 1.26383 45.5459 1.34985 45.7385 1.4406C45.9299 1.53135 46.1192 1.62672 46.3063 1.72671C46.4935 1.8266 46.6779 1.93095 46.8597 2.03976C47.0425 2.14868 47.2222 2.2619 47.3985 2.37943C47.5749 2.49706 47.7481 2.61884 47.918 2.74477C48.0879 2.87079 48.2552 3.0008 48.4197 3.1348C48.5832 3.26891 48.7435 3.40689 48.9005 3.54875C49.0575 3.69061 49.2108 3.83619 49.3603 3.98549C49.5098 4.13468 49.6561 4.28749 49.7991 4.4439C49.9411 4.60022 50.0793 4.75993 50.2137 4.92305C50.3471 5.08605 50.4772 5.25225 50.6041 5.42163C50.73 5.59101 50.8515 5.76337 50.9687 5.93871C51.086 6.11393 51.1989 6.29192 51.3075 6.47268C51.4161 6.65343 51.5199 6.83668 51.6189 7.02242C51.7189 7.20828 51.8141 7.39636 51.9044 7.58668C51.9937 7.7771 52.0787 7.9696 52.1593 8.16417C52.24 8.35863 52.3158 8.55495 52.3868 8.75313C52.4578 8.95131 52.5234 9.15114 52.5836 9.35261C52.6449 9.55398 52.7009 9.75668 52.7514 9.9607C52.802 10.1648 52.8477 10.37 52.8885 10.5763C52.9294 10.7826 52.9649 10.9898 52.995 11.1978C53.0251 11.4058 53.0504 11.6145 53.0708 11.8237C53.0902 12.0329 53.1047 12.2425 53.1144 12.4525C53.1241 12.6625 53.1284 12.8726 53.1273 13.0828C53.1262 13.2928 53.1198 13.5028 53.108 13.7127C53.0972 13.9225 53.0811 14.132 53.0595 14.3412C53.037 14.5502 53.0095 14.7586 52.9773 14.9663C52.9461 15.1741 52.909 15.3809 52.866 15.5868C52.824 15.7928 52.7767 15.9976 52.724 16.2013C52.6713 16.4049 52.6137 16.6071 52.5514 16.808C52.4879 17.0088 52.4201 17.208 52.3481 17.4055C52.2749 17.6031 52.1975 17.7987 52.1158 17.9926C52.033 18.1864 51.9458 18.3781 51.8544 18.5677C51.763 18.7574 51.6667 18.9446 51.5656 19.1295C51.4645 19.3144 51.3586 19.4968 51.2478 19.6766C51.1381 19.8564 51.0236 20.0333 50.9042 20.2075C50.7848 20.3818 50.6617 20.553 50.5348 20.7212C50.4068 20.8896 50.275 21.0546 50.1395 21.2165C50.004 21.3784 49.8642 21.5369 49.7201 21.692C49.577 21.8471 49.4297 21.9986 49.278 22.1466C49.1274 22.2946 48.9731 22.4388 48.815 22.5793C48.6569 22.7197 48.495 22.8562 48.3294 22.9888C48.1649 23.1214 47.9965 23.25 47.8244 23.3745C47.6534 23.499 47.4792 23.6192 47.3017 23.7352C47.1243 23.8512 46.9441 23.9628 46.7613 24.0701C46.5784 24.1773 46.3929 24.2801 46.2047 24.3784C46.0165 24.4767 45.8261 24.5703 45.6336 24.6594C45.44 24.7484 45.2448 24.8328 45.048 24.9124C44.8512 24.9919 44.6527 25.0667 44.4527 25.1366C44.2516 25.2067 44.0488 25.2717 43.8445 25.3319C43.6412 25.392 43.4363 25.4472 43.2298 25.4973C43.0233 25.5475 42.8152 25.5926 42.6055 25.6328C42.3968 25.6729 42.1871 25.7079 41.9763 25.7379C41.7666 25.7678 41.5558 25.7927 41.3439 25.8125C41.132 25.8321 40.9196 25.8467 40.7066 25.8561C40.4937 25.8656 40.2807 25.8698 40.0678 25.8689C39.8548 25.868 39.6424 25.862 39.4305 25.8509C39.2176 25.8396 39.0052 25.8232 38.7933 25.8018C38.5825 25.7803 38.3717 25.7537 38.1609 25.7219C37.9501 25.6901 37.7403 25.6533 37.5317 25.6115C37.323 25.5696 37.116 25.5227 36.9106 25.4707C36.7041 25.4188 36.4992 25.3619 36.2959 25.3C36.0926 25.2382 35.891 25.1714 35.6909 25.0996C35.4898 25.028 35.2914 24.9516 35.0956 24.8703C34.8988 24.789 34.7047 24.703 34.5132 24.6122C34.3207 24.5216 34.1309 24.4263 33.9437 24.3264C33.7566 24.2265 33.5721 24.1221 33.3904 24.0132C33.2075 23.9044 33.0279 23.7912 32.8515 23.6737C32.6752 23.5562 32.502 23.4344 32.3321 23.3084C32.1611 23.1825 31.9938 23.0524 31.8303 22.9183C31.6669 22.7843 31.5066 22.6464 31.3496 22.5045C31.1915 22.3627 31.0377 22.2171 30.8882 22.0678C30.7387 21.9185 30.593 21.7656 30.451 21.6092C30.3079 21.4528 30.1692 21.2931 30.0348 21.1301C29.9014 20.967 29.7713 20.8007 29.6443 20.6313C29.5185 20.462 29.397 20.2896 29.2797 20.1143C29.1625 19.9389 29.0496 19.7609 28.9409 19.5801C28.8323 19.3993 28.728 19.216 28.628 19.0302C28.529 18.8444 28.4344 18.6562 28.344 18.4658C28.2537 18.2754 28.1682 18.0828 28.0875 17.8882C28.0069 17.6936 27.931 17.4972 27.8601 17.299C27.7891 17.1008 27.7235 16.9009 27.6632 16.6994C27.6019 16.498 27.546 16.2952 27.4955 16.091C27.4449 15.8869 27.3992 15.6816 27.3583 15.4753C27.3175 15.2689 27.282 15.0617 27.2518 14.8536C27.2217 14.6456 27.1965 14.4369 27.176 14.2275C27.1567 14.0182 27.1421 13.8085 27.1325 13.5986C27.1228 13.3886 27.1185 13.1784 27.1195 12.9682C27.1206 12.758 27.1271 12.5479 27.1389 12.3379C27.1497 12.128 27.1658 11.9185 27.1873 11.7094C27.2099 11.5003 27.2373 11.2918 27.2696 11.0839C27.3019 10.8761 27.339 10.6692 27.3809 10.4633C27.4228 10.2572 27.4702 10.0524 27.5229 9.84865C27.5756 9.64494 27.6337 9.44267 27.6971 9.24183C27.7595 9.04089 27.8273 8.84159 27.9004 8.64394C27.9724 8.44629 28.0499 8.25056 28.1327 8.05674C28.2144 7.86291 28.3015 7.67116 28.394 7.48148C28.4855 7.29191 28.5817 7.10462 28.6828 6.91962C28.7839 6.73461 28.8899 6.55222 29.0006 6.37242C29.1103 6.19262 29.2249 6.01559 29.3443 5.84132C29.4637 5.66705 29.5868 5.49575 29.7137 5.32743C29.8417 5.15922 29.9734 4.99413 30.109 4.83219C30.2445 4.67035 30.3843 4.51186 30.5284 4.35672C30.6725 4.20157 30.8199 4.05004 30.9705 3.90213C31.1221 3.7541 31.277 3.60985 31.4351 3.46937C31.5932 3.32889 31.7551 3.19234 31.9207 3.05973C32.0852 2.92711 32.2536 2.79858 32.4256 2.67415C32.5966 2.54972 32.7709 2.42953 32.9483 2.3136C33.1258 2.19756 33.3065 2.08594 33.4904 1.97872C33.6733 1.8715 33.8588 1.76874 34.047 1.67045C34.2352 1.57226 34.4256 1.47864 34.6181 1.38959C34.8106 1.30065 35.0058 1.21639 35.2037 1.1368C35.4006 1.0572 35.599 0.982501 35.799 0.912686C36.0001 0.842765 36.2029 0.777787 36.4072 0.717748C36.6105 0.657603 36.8159 0.602454 37.0235 0.552298C37.23 0.502248 37.4376 0.457194 37.6462 0.417133C37.8549 0.377072 38.0646 0.342108 38.2754 0.312248C38.4862 0.282388 38.6976 0.257628 38.9094 0.23797C39.1213 0.218418 39.3337 0.203965 39.5467 0.194614Z"
        fill="currentColor"
      />
      <path
        d="M39.9138 7.15106C40.0149 7.14415 40.116 7.13974 40.2171 7.13783C40.3182 7.13581 40.4193 7.13629 40.5204 7.13927C40.6215 7.14214 40.7221 7.1475 40.8221 7.15536C40.9232 7.16323 41.0237 7.17353 41.1238 7.18629C41.2249 7.19904 41.3249 7.21418 41.4238 7.23171C41.5239 7.24935 41.6228 7.26933 41.7207 7.29165C41.8196 7.31407 41.918 7.33888 42.0159 7.36609C42.1127 7.39318 42.209 7.42267 42.3047 7.45455C42.4004 7.48643 42.4956 7.52059 42.5902 7.55704C42.6838 7.59349 42.7768 7.63222 42.8693 7.67323C42.9618 7.71425 43.0533 7.75745 43.1436 7.80282C43.2329 7.8483 43.3216 7.89591 43.4098 7.94564C43.4969 7.99537 43.583 8.04718 43.6679 8.10105C43.754 8.15503 43.8378 8.21103 43.9196 8.26905C44.0024 8.32707 44.0831 8.38706 44.1616 8.44901C44.2412 8.51085 44.3191 8.57467 44.3955 8.64044C44.4719 8.70611 44.5461 8.77364 44.6181 8.84303C44.6913 8.91231 44.7628 8.98335 44.8327 9.05614C44.9015 9.12893 44.9688 9.20337 45.0344 9.27945C45.1 9.35543 45.1634 9.433 45.2247 9.51217C45.286 9.59133 45.3457 9.67193 45.4038 9.75397C45.4619 9.836 45.5173 9.91942 45.57 10.0042C45.6238 10.0889 45.6754 10.1749 45.7249 10.2623C45.7743 10.3495 45.8211 10.4379 45.8652 10.5273C45.9104 10.6169 45.9534 10.7075 45.9943 10.7991C46.0341 10.8907 46.0717 10.9832 46.1072 11.0766C46.1427 11.17 46.176 11.2643 46.2072 11.3594C46.2384 11.4545 46.2669 11.5502 46.2927 11.6466C46.3196 11.7431 46.3438 11.8402 46.3653 11.9378C46.3868 12.0354 46.4057 12.1334 46.4218 12.2319C46.4379 12.3305 46.4519 12.4295 46.4637 12.5287C46.4756 12.6278 46.4847 12.7273 46.4912 12.8269C46.4976 12.9266 46.5019 13.0264 46.5041 13.1263C46.5051 13.2262 46.5041 13.326 46.5008 13.4258C46.4976 13.5256 46.4917 13.6252 46.4831 13.7248C46.4756 13.8244 46.4648 13.9237 46.4508 14.0227C46.4379 14.1217 46.4223 14.2204 46.404 14.3185C46.3858 14.4168 46.3653 14.5146 46.3427 14.6118C46.3202 14.7092 46.2949 14.8058 46.2669 14.9018C46.239 14.9978 46.2088 15.0931 46.1766 15.1877C46.1432 15.2823 46.1083 15.376 46.0717 15.4689C46.0341 15.5618 45.9943 15.6536 45.9523 15.7445C45.9104 15.8354 45.8663 15.9253 45.82 16.0142C45.7738 16.103 45.7254 16.1906 45.6748 16.277C45.6243 16.3635 45.5716 16.4487 45.5167 16.5325C45.4619 16.6164 45.4049 16.6989 45.3457 16.7801C45.2866 16.8611 45.2258 16.9407 45.1634 17.0188C45.1 17.097 45.0349 17.1737 44.9682 17.2487C44.9015 17.3236 44.8327 17.3969 44.7617 17.4686C44.6918 17.5403 44.6197 17.6101 44.5455 17.6783C44.4713 17.7465 44.3961 17.8128 44.3197 17.8772C44.2423 17.9417 44.1632 18.0043 44.0825 18.0649C44.0019 18.1256 43.9201 18.1843 43.8373 18.2409C43.7545 18.2976 43.6701 18.3522 43.584 18.4048C43.498 18.4574 43.4103 18.5078 43.3211 18.556C43.2329 18.6044 43.1436 18.6506 43.0532 18.6945C42.9618 18.7385 42.8699 18.7803 42.7774 18.8197C42.6838 18.8592 42.5897 18.8964 42.4951 18.9314C42.4004 18.9664 42.3052 18.999 42.2095 19.0293C42.1127 19.0596 42.0154 19.0875 41.9175 19.1131C41.8196 19.1386 41.7212 19.1618 41.6223 19.1826C41.5233 19.2034 41.4244 19.2218 41.3254 19.2378C41.2254 19.2538 41.1248 19.2674 41.0237 19.2784C40.9237 19.2896 40.8232 19.2982 40.7221 19.3044C40.622 19.3106 40.5215 19.3143 40.4204 19.3155C40.3193 19.3169 40.2187 19.3158 40.1187 19.3122C40.0176 19.3087 39.917 19.3027 39.817 19.2943C39.717 19.2858 39.617 19.275 39.5169 19.2617C39.4169 19.2485 39.3174 19.2329 39.2185 19.2148C39.1195 19.1966 39.0211 19.1762 38.9232 19.1534C38.8254 19.1306 38.728 19.1054 38.6313 19.0777C38.5345 19.0502 38.4382 19.0204 38.3425 18.9882C38.2478 18.956 38.1537 18.9215 38.0601 18.8847C37.9666 18.8479 37.8741 18.8089 37.7827 18.7677C37.6902 18.7265 37.5993 18.6831 37.51 18.6375C37.4207 18.5918 37.3325 18.544 37.2454 18.4942C37.1583 18.4442 37.0728 18.3923 36.9889 18.3383C36.904 18.2842 36.8206 18.2282 36.7389 18.1701C36.6571 18.112 36.577 18.052 36.4985 17.99C36.42 17.9281 36.3425 17.8643 36.2662 17.7986C36.1909 17.7329 36.1172 17.6654 36.0452 17.5962C35.9731 17.527 35.9026 17.4561 35.8338 17.3834C35.765 17.3107 35.6977 17.2364 35.6321 17.1605C35.5676 17.0846 35.5047 17.0071 35.4434 16.9281C35.3821 16.8492 35.3229 16.7688 35.2659 16.687C35.2089 16.6052 35.1535 16.522 35.0998 16.4375C35.0471 16.353 34.9965 16.2673 34.9481 16.1803C34.8986 16.0933 34.8519 16.0053 34.8078 15.916C34.7626 15.8268 34.7201 15.7366 34.6803 15.6453C34.6405 15.5541 34.6029 15.4619 34.5674 15.3688C34.5319 15.2757 34.4991 15.1818 34.469 15.0871C34.4378 14.9925 34.4093 14.8971 34.3835 14.801C34.3576 14.705 34.334 14.6083 34.3125 14.5111C34.291 14.414 34.2722 14.3163 34.256 14.2181C34.2399 14.12 34.2259 14.0216 34.2141 13.9228C34.2022 13.824 34.1931 13.7251 34.1866 13.6258C34.1802 13.5266 34.1759 13.4272 34.1737 13.3277C34.1727 13.2284 34.1737 13.129 34.177 13.0295C34.1802 12.9302 34.1856 12.8309 34.1931 12.7318C34.2017 12.6326 34.2125 12.5338 34.2254 12.4351C34.2383 12.3365 34.2539 12.2383 34.2722 12.1406C34.2904 12.0427 34.3109 11.9453 34.3335 11.8484C34.356 11.7515 34.3813 11.6552 34.4093 11.5596C34.4362 11.4639 34.4658 11.3691 34.498 11.2749C34.5303 11.1807 34.5652 11.0872 34.6029 10.9947C34.6394 10.9022 34.6782 10.8107 34.719 10.7201C34.761 10.6294 34.8051 10.5398 34.8513 10.4513C34.8965 10.3628 34.9444 10.2755 34.9949 10.1893C35.0455 10.103 35.0976 10.018 35.1514 9.9344C35.2062 9.85077 35.2627 9.76847 35.3208 9.6875C35.3799 9.60653 35.4407 9.52705 35.5031 9.44905C35.5655 9.37105 35.6295 9.2946 35.6951 9.21968C35.7617 9.14487 35.83 9.07165 35.9 9.00003C35.9699 8.92841 36.0414 8.85854 36.1145 8.79043C36.1876 8.72231 36.2629 8.65601 36.3404 8.59151C36.4167 8.52701 36.4947 8.46436 36.5743 8.40358C36.6539 8.3429 36.7351 8.28414 36.8179 8.22729C36.9007 8.17055 36.9846 8.11577 37.0696 8.06295C37.1556 8.01025 37.2422 7.95961 37.3293 7.91105C37.4175 7.86259 37.5068 7.81627 37.5971 7.77206C37.6875 7.72775 37.7789 7.68572 37.8714 7.64598C37.9628 7.60613 38.0558 7.56857 38.1505 7.53329C38.244 7.4979 38.3387 7.46485 38.4344 7.43414C38.5301 7.40343 38.6269 7.37506 38.7248 7.34903C38.8216 7.32299 38.9195 7.29935 39.0184 7.2781C39.1163 7.25674 39.2147 7.23782 39.3137 7.22135C39.4137 7.20478 39.5137 7.19064 39.6137 7.17896C39.7138 7.16727 39.8138 7.15797 39.9138 7.15106Z"
        fill="var(--background)"
      />
      <path
        d="M6.90035 29.3312C7.79411 29.3898 11.7934 31.5456 12.9728 31.991C16.9785 33.5016 21.6667 34.1779 25.9387 34.2324C31.1948 34.2997 36.1492 32.9826 40.9245 30.8824C41.8876 30.4589 43.246 29.9461 44.0075 29.2118C44.3673 29.8945 44.3447 31.0844 44.2269 31.8372C44.1688 32.2137 44.0995 32.2111 43.7946 32.4309C42.6233 33.6281 38.3787 35.3152 36.73 35.9255C28.7329 38.8866 19.9163 38.2314 12.1258 34.9718C10.3141 34.2141 8.68142 33.0916 6.88906 32.3024L6.76807 32.2499C7.15203 31.5173 6.9681 30.1578 6.90035 29.3312Z"
        fill="currentColor"
      />
    </svg>